<?xml version="1.0" encoding="UTF-8"?>
<svg id="Layer_2" data-name="Layer 2" xmlns="http://www.w3.org/2000/svg" xmlns:xlink="http://www.w3.org/1999/xlink" viewBox="0 0 441.64 444.44">
  <defs>
    <style>
      .cls-1 {
        fill: url(#linear-gradient-2);
      }

      .cls-2 {
        fill: url(#linear-gradient-6);
      }

      .cls-3 {
        fill: #134577;
      }

      .cls-4 {
        fill: url(#linear-gradient-5);
      }

      .cls-5 {
        fill: url(#linear-gradient-7);
      }

      .cls-6 {
        fill: url(#linear-gradient-3);
      }

      .cls-7 {
        fill: url(#linear-gradient);
      }

      .cls-8 {
        fill: url(#linear-gradient-4);
      }

      .cls-9 {
        fill: url(#linear-gradient-8);
      }
    </style>
    <linearGradient id="linear-gradient" x1="456.62" y1="258.58" x2="245.19" y2="453.32" gradientUnits="userSpaceOnUse">
      <stop offset="0" stop-color="#85f0f4"/>
      <stop offset=".14" stop-color="#1fd1e5"/>
      <stop offset="1" stop-color="#0066b3"/>
    </linearGradient>
    <linearGradient id="linear-gradient-2" x1="456.65" y1="260.14" x2="245.94" y2="454.22" gradientUnits="userSpaceOnUse">
      <stop offset="0" stop-color="#24e4eb"/>
      <stop offset=".14" stop-color="#1fd1e5"/>
      <stop offset=".65" stop-color="#0066b3"/>
      <stop offset="1" stop-color="#00214d"/>
    </linearGradient>
    <linearGradient id="linear-gradient-3" x1="417.95" y1="115.9" x2="45.87" y2="446.23" xlink:href="#linear-gradient"/>
    <linearGradient id="linear-gradient-4" x1="428.4" y1="97.88" x2="104.57" y2="425.03" xlink:href="#linear-gradient-2"/>
    <linearGradient id="linear-gradient-5" x1="141.36" y1="45.87" x2="14.95" y2="168.29" xlink:href="#linear-gradient"/>
    <linearGradient id="linear-gradient-6" x1="181.26" y1="-20.04" x2="-20.7" y2="227.33" xlink:href="#linear-gradient-2"/>
    <linearGradient id="linear-gradient-7" x1="287.64" y1="9.41" x2="-2.93" y2="293.32" xlink:href="#linear-gradient"/>
    <linearGradient id="linear-gradient-8" x1="287.64" y1="11" x2="-2.93" y2="294.9" xlink:href="#linear-gradient-2"/>
  </defs>
  <g id="Layer_1-2" data-name="Layer 1">
    <g>
      <path class="cls-3" d="M88.09,388.95c50.45-4.28,125.45-46.8,187.15-102.35-12.98,.84-26.83,2.61-41.42,5.43-89.57,17.3-180.5,73.58-163.57,92.59,.32,.3,.64,.6,.96,.9,.84,.72,1.7,1.45,2.59,2.21-.9-.81-1.79-1.62-2.69-2.43,4.16,2.63,6.44,3.5,16.98,3.65Z"/>
      <path class="cls-3" d="M105.61,411.46c6.72,4.26,10.49,6.34,17.83,9.95,.72,.34,1.45,.69,2.21,1.04-5.3-2.74-9.18-4.75-12.42-6.49-2.59-1.48-5.15-3-7.62-4.5Z"/>
      <path class="cls-3" d="M92.65,402.96s.08,.05,.12,.08c-3.34-2.56-7.07-5.5-10.79-8.51,3.67,2.99,7.35,5.91,10.67,8.43Z"/>
      <path class="cls-3" d="M137.41,427.58c3.52,1.47,7.06,2.9,10.13,4.03-.12-.06-.23-.12-.36-.19-1.17-.44-2.39-.9-3.62-1.38-1.99-.79-4.07-1.62-6.16-2.46Z"/>
      <path class="cls-3" d="M385,342.72c2.22-16.05-4.7-29.48-18.88-39.24-18.79,20.75-40.36,40-62.58,56.97,20.98,3.69,30.1,14.72,24,27.9-1.42,3.07-3.18,6.3-5.64,9.4,22.13-15.56,44.12-34.28,63.11-55.03Z"/>
      <path class="cls-3" d="M426.78,303.01c1.62-4.13,3.21-8.54,4.73-13.32,.87-2.83,1.76-5.89,2.73-9.33,.12-.46,.25-.92,.38-1.4,.03-.16,.07-.31,.1-.47-.08,.33-.17,.65-.25,.97-2.05,6.93-4.41,14.82-7.68,23.54Z"/>
      <path class="cls-3" d="M9.79,287.81c.07,.22,.14,.44,.22,.67-.08-.24-.15-.48-.23-.72,0,.02,.01,.03,.02,.05Z"/>
      <path class="cls-3" d="M19.1,312.73c.73,1.66,1.48,3.33,2.28,5.03-2.56-5.99-5.21-12.2-7.74-18.93,1.82,4.89,3.71,9.68,5.47,13.9Z"/>
      <path class="cls-3" d="M36.97,237.74c56.53-13.62,119.78-57.17,160.45-102.49C113.52,151.35,33.86,185.5,6.94,217c-6.51,7.62-6.78,11.66-6.94,14.07,.94,3.98,3.14,13.3,36.97,6.67Z"/>
      <path class="cls-3" d="M397.1,356.9c.1-.12,.19-.24,.28-.37l1.11-1.51c-.21,.28-.43,.57-.64,.85-.25,.35-.5,.69-.75,1.04Z"/>
      <path class="cls-3" d="M307.2,126.28c-13.56,27.83-37.22,58.25-70.9,89.02,36.34-5.16,72.46-5.83,103.92,.34,18.32-25.14,31.96-50.78,38.4-75.22-20.59-8.35-45.02-12.8-71.42-14.14Z"/>
      <path class="cls-3" d="M408.66,339.85c3.02-4.81,5.4-9.1,9.55-17.07-3.71,6.89-5.99,11.11-8.19,14.86-.44,.72-.9,1.46-1.36,2.21Z"/>
      <path class="cls-3" d="M423.65,289.02c10.13-19.23,16.61-39.21,17.86-59.31,0,.14,0,.27,0,.41-.4,6.82-1,15.72-2.28,25.32,1.24-8.05,2.14-16.9,2.41-27.52-.58-18.93-5.3-34.77-13.34-47.91-1.55,22.81-9.35,45.57-21.45,67.57,10.99,11.67,16.6,25.74,16.81,41.45Z"/>
      <path class="cls-3" d="M320.13,64.22c21.86,3.81,41.87,10.41,58.71,20.38-4.11-12.95-11.58-24.97-22.99-35.69-2.77-2.6-6.62-5.6-9.94-8.03-.98-.65-1.99-1.32-3.02-1.99-15.55-9.15-32.89-15.31-51.19-19,16.43,10.92,25.89,26.12,28.43,44.33Z"/>
      <path class="cls-3" d="M47.71,84.92c-2.26,2.86-4.5,5.75-6.37,8.25-.5,.74-.97,1.44-1.42,2.12,1.12-1.58,2.31-3.22,3.49-4.83,1.37-1.78,2.82-3.66,4.3-5.54Z"/>
      <path class="cls-3" d="M220.55,21.08c-2.83-1.58-5.85-2.86-9-3.88-26.86,2.86-53.21,8.94-76.72,16.71-1.19,2.02-1.6,4.04-1.06,5.97-17.8,9.04-30.04,10.56-34.35,7.92-20.16,9.34-36.06,19.56-45.21,29.04-11.65,14.98,2.71,14.59,9.43,13.73,10.82-1.39,22.16-6.39,28.25-9.08-5.34,6.87-10.31,14.04-14.91,21.46,44.43-20.82,104.47-37.29,162.51-41.69,2.41-17.08-3.01-31.33-18.94-40.19Z"/>
      <path class="cls-3" d="M25.59,118.78c-.27,.52-.54,1.06-.81,1.6,2.93-5.44,4.91-9.05,6.84-12.33-1.91,3.14-3.69,6.32-6.03,10.72Z"/>
      <path class="cls-3" d="M402.72,97.84c-.76-1.09-1.58-2.27-2.5-3.58-.02-.03-.04-.06-.07-.09,3.8,5.79,6.53,9.95,8.68,13.33-2.05-3.45-4.11-6.74-6.11-9.66Z"/>
      <path class="cls-3" d="M15.28,141.12c-1.25,3.23-2.49,6.71-3.51,9.62-.38,1.13-.78,2.35-1.23,3.7,2.74-7.59,4.43-12.3,5.85-15.97-.4,.93-.76,1.8-1.1,2.64Z"/>
      <path class="cls-3" d="M378.36,68.15c-.5-.51-1.03-1.04-1.59-1.6-.5-.49-1.01-.99-1.53-1.51,5.06,5.36,8.56,9.07,11.3,12.08-2.67-3.02-5.59-6.33-8.18-8.97Z"/>
      <path class="cls-3" d="M350.69,44.2c-.76-.55-1.57-1.12-2.44-1.74-.64-.44-1.3-.9-1.99-1.36,6.2,4.6,10.31,7.65,13.61,10.24-2.94-2.34-6.22-4.98-9.18-7.15Z"/>
      <path class="cls-7" d="M426.78,301.42c3.27-8.71,5.63-16.61,7.68-23.54,.09-.33,.17-.65,.25-.97,1.1-4.23,2.07-8.43,2.76-12.11,.19-1,.37-2.06,.56-3.12,.45-2.64,.85-5.26,1.19-7.83,1.28-9.6,1.88-18.5,2.28-25.32,0-.13,0-.27,0-.41-1.25,20.1-7.73,40.08-17.86,59.31-9.91,18.82-23.3,36.92-38.65,53.7-18.99,20.75-40.98,39.47-63.11,55.03-12.62,8.88-25.28,16.72-37.45,23.33,.12-.15,.24-.28,.37-.44-24.82,13.54-50.66,20.52-75.89,21.34v1.59c1.12,.78,4.28,.43,6.87,.7,1.15,.04,2.3,.07,3.43,.1-.19,.01-.38,.03-.57,.04,.27,0,.54,.02,.8,.03,1.75,0,3.68-.02,5.62-.06,1.85-.02,3.69-.04,5.38-.1,.28-.01,.56-.02,.85-.03,.16,0,.32,0,.48-.01,3.19-.14,7.31-.46,10.72-.76,.14-.02,.28-.03,.42-.05,.66-.05,1.26-.11,1.84-.16,2.53-.27,5.33-.63,7.58-.93,.39-.06,.81-.12,1.24-.18,.11-.02,.21-.03,.32-.05,.03,0,.05,0,.08-.01,2.41-.36,5.13-.8,8.05-1.34,.32-.06,.65-.13,1.01-.2,.28-.05,.54-.1,.8-.14,2.01-.39,3.96-.79,5.74-1.19,.69-.16,1.44-.33,2.33-.54,.09-.02,.17-.04,.26-.06,.78-.2,1.62-.41,2.48-.63,2.22-.56,3.84-.98,5.12-1.31,2.08-.56,4.05-1.12,5.99-1.71,.47-.14,.98-.3,1.55-.48,.58-.18,1.1-.34,1.57-.49,1.35-.43,2.8-.91,4.3-1.43,.34-.12,.71-.25,1.11-.4,.19-.07,.37-.13,.55-.19,2.11-.74,4.15-1.49,6.11-2.25,.05-.02,.1-.04,.15-.06,2.79-1.08,3.86-1.5,6.5-2.65,.42-.17,.8-.33,1.16-.48,1.51-.65,2.97-1.3,4.36-1.94,.28-.13,.57-.26,.88-.41l4.56-2.18c28.26-14,53.83-34.86,76.04-61.97,1.13-1.42,2.21-2.82,3.25-4.19,.21-.28,.44-.57,.64-.85l1.69-2.29c1.77-2.56,3.22-4.69,4.49-6.6,1.35-2.07,2.7-4.21,3.98-6.27,.47-.75,.92-1.49,1.36-2.21,2.2-3.75,4.48-7.97,8.19-14.86,3.47-6.98,6.24-13.58,8.57-19.78Z"/>
      <path class="cls-1" d="M426.78,303.01c3.27-8.71,5.63-16.61,7.68-23.54,.09-.33,.17-.65,.25-.97,1.1-4.23,2.07-8.43,2.76-12.11,.19-1,.37-2.06,.56-3.12,.45-2.64,.85-5.26,1.19-7.83,1.28-9.6,1.88-18.5,2.28-25.32,0-.13,0-.27,0-.41-1.25,20.1-7.73,40.08-17.86,59.31-9.91,18.82-23.3,36.92-38.65,53.7-18.99,20.75-40.98,39.47-63.11,55.03-12.62,8.88-25.28,16.72-37.45,23.33,.12-.15,.24-.28,.37-.44-24.82,13.54-50.66,20.52-75.89,21.34,1.73,.99,3.41,1.92,6.87,2.28,1.15,.04,2.3,.07,3.43,.1-.19,.01-.38,.03-.57,.04,.27,0,.54,.02,.8,.03,1.75,0,3.68-.02,5.62-.06,1.85-.02,3.69-.04,5.38-.1,.28-.01,.56-.02,.85-.03,.16,0,.32,0,.48-.01,3.19-.14,7.31-.46,10.72-.76,.14-.02,.28-.03,.42-.05,.66-.05,1.26-.11,1.84-.16,2.53-.27,5.33-.63,7.58-.93,.39-.06,.81-.12,1.24-.18,.11-.02,.21-.03,.32-.05,.03,0,.05,0,.08-.01,2.41-.36,5.13-.8,8.05-1.34,.32-.06,.65-.13,1.01-.2,.28-.05,.54-.1,.8-.14,2.01-.39,3.96-.79,5.74-1.19,.69-.16,1.44-.33,2.33-.54,.09-.02,.17-.04,.26-.06,.78-.2,1.62-.41,2.48-.63,2.22-.56,3.84-.98,5.12-1.31,2.08-.56,4.05-1.12,5.99-1.71,.47-.14,.98-.3,1.55-.48,.58-.18,1.1-.34,1.57-.49,1.35-.43,2.8-.91,4.3-1.43,.34-.12,.71-.25,1.11-.4,.19-.07,.37-.13,.55-.19,2.11-.74,4.15-1.49,6.11-2.25,.05-.02,.1-.04,.15-.06,2.79-1.08,3.86-1.5,6.5-2.65,.42-.17,.8-.33,1.16-.48,1.51-.65,2.97-1.3,4.36-1.94,.28-.13,.57-.26,.88-.41l4.56-2.18c28.26-14,53.83-34.86,76.04-61.97,1.13-1.42,2.21-2.82,3.25-4.19,.21-.28,.44-.57,.64-.85l1.69-2.29c1.77-2.56,3.22-4.69,4.49-6.6,1.35-2.07,2.7-4.21,3.98-6.27,.47-.75,.92-1.49,1.36-2.21,2.2-3.75,4.48-7.97,8.19-14.86,3.47-6.98,6.24-13.58,8.57-19.78Z"/>
      <path class="cls-6" d="M366.12,301.89c16.05-17.71,30.06-36.51,40.73-55.91,12.1-21.99,19.9-44.75,21.45-67.57,1.18-17.25-1.21-34.52-8-51.51l-.16-.34c-2.46-5.06-5.85-11.45-8.85-16.72-.74-1.21-1.55-2.5-2.45-3.93-2.15-3.38-4.88-7.54-8.68-13.33,0,0,0,0,0-.02-2.37-3.25-4.18-5.71-5.87-7.89-1.74-2.18-3.53-4.33-5.22-6.33-.77-.88-1.6-1.81-2.51-2.81-2.74-3.01-6.24-6.72-11.3-12.08-.09-.1-.17-.19-.27-.28-2.87-2.75-5.1-4.86-7.16-6.72-2.4-2.09-4.88-4.16-7.12-6.03-.27-.21-.54-.43-.82-.65-3.3-2.59-7.41-5.65-13.61-10.24-.35-.26-.69-.51-1.05-.78l-.97-.66c.54,.38,1.1,.79,1.68,1.21,3.33,2.43,7.18,5.43,9.94,8.03,11.41,10.72,18.88,22.74,22.99,35.69,5.47,17.25,4.96,36.15-.22,55.82-6.44,24.44-20.08,50.08-38.4,75.22-17.97,24.66-40.42,48.84-64.99,70.96-61.71,55.55-136.7,98.07-187.15,102.35-10.53-.15-12.82-1.02-16.98-3.65,.89,.81,1.79,1.62,2.69,2.43,.18,.16,.36,.32,.54,.48,2.42,2.05,5.01,4.19,7.64,6.32,3.72,3.01,7.46,5.95,10.79,8.51,.3,.23,.61,.47,.9,.69,2.05,1.4,3.83,2.62,5.45,3.7,2.03,1.28,4.21,2.63,6.5,4.02,2.47,1.5,5.03,3.02,7.62,4.5,3.23,1.74,7.12,3.75,12.42,6.49,.53,.27,1.07,.55,1.63,.84,.83,.37,1.7,.76,2.59,1.15,2.37,1.03,4.96,2.1,7.55,3.15,2.09,.85,4.17,1.67,6.16,2.46,1.23,.48,2.45,.94,3.62,1.38,.29,.11,.56,.21,.84,.32l.61,.16c.48,.2,.96,.4,1.43,.6,26.97,3.81,92.65-25.59,153.46-72.05,22.22-16.98,43.79-36.23,62.58-56.97Z"/>
      <path class="cls-8" d="M366.12,303.48c16.05-17.71,30.06-36.51,40.73-55.91,12.1-21.99,19.9-44.75,21.45-67.57,1.18-17.25-1.21-34.52-8-51.51l-.16-.34c-2.46-5.06-5.85-11.45-8.85-16.72-.74-1.21-1.55-2.5-2.45-3.93-2.15-3.38-4.88-7.54-8.68-13.33,0,0,0,0,0-.02-2.37-3.25-4.18-5.71-5.87-7.89-1.74-2.18-3.53-4.33-5.22-6.33-.77-.88-1.6-1.81-2.51-2.81-2.74-3.01-6.24-6.72-11.3-12.08-.09-.1-.17-.19-.27-.28-2.87-2.75-5.1-4.86-7.16-6.72-2.4-2.09-4.88-4.16-7.12-6.03-.27-.21-.54-.43-.82-.65-3.3-2.59-7.41-5.65-13.61-10.24-.35-.26-.69-.51-1.05-.78l-.97-.66c.54,.38,1.1,.79,1.68,1.21,3.33,2.43,7.18,5.43,9.94,8.03,11.41,10.72,18.88,22.74,22.99,35.69,5.47,17.25,4.96,36.15-.22,55.82-6.44,24.44-20.08,50.08-38.4,75.22-17.97,24.66-40.42,48.84-64.99,70.96-61.71,55.55-136.7,98.07-187.15,102.35-10.53-.15-12.82-1.02-16.98-3.65,.89,.81,1.79,1.62,2.69,2.43,.18,.16,.36,.32,.54,.48,2.42,2.05,5.01,4.19,7.64,6.32,3.72,3.01,7.46,5.95,10.79,8.51,.3,.23,.61,.47,.9,.69,2.05,1.4,3.83,2.62,5.45,3.7,2.03,1.28,4.21,2.63,6.5,4.02,2.47,1.5,5.03,3.02,7.62,4.5,3.23,1.74,7.12,3.75,12.42,6.49,.53,.27,1.07,.55,1.63,.84,.83,.37,1.7,.76,2.59,1.15,2.37,1.03,4.96,2.1,7.55,3.15,2.09,.85,4.17,1.67,6.16,2.46,1.23,.48,2.45,.94,3.62,1.38,.29,.11,.56,.21,.84,.32l.61,.16c.48,.2,.96,.4,1.43,.6,26.97,3.81,92.65-25.59,153.46-72.05,22.22-16.98,43.79-36.23,62.58-56.97Z"/>
      <path class="cls-4" d="M93.48,80.71c-6.09,2.69-17.44,7.7-28.25,9.08-6.72,.86-21.08,1.24-9.43-13.73-1.99,2.39-4.26,5.22-6.51,8.07-1.48,1.88-2.94,3.76-4.3,5.54-1.18,1.61-2.37,3.25-3.49,4.83-.4,.56-.79,1.11-1.17,1.66-3.06,4.49-5.07,7.61-7.13,11.1-1.93,3.28-3.9,6.89-6.84,12.33-.47,.86-.95,1.77-1.47,2.73-1.29,2.63-2.31,4.72-3.19,6.6-1.02,2.21-2.01,4.51-3,6.88-.24,.6-.49,1.22-.74,1.88-1.42,3.67-3.12,8.37-5.85,15.97-2.6,11.95,10.71,14.19,39.56,6.68,35.17-9.25,60.47-21.16,63.18-53.06,.74-8.7,.13-35.07-21.38-26.56Z"/>
      <path class="cls-2" d="M91.89,81.5c-6.09,2.69-17.44,7.7-28.25,9.08-6.72,.86-21.08,1.24-9.43-13.73-1.99,2.39-4.26,5.22-6.51,8.07-1.48,1.88-2.94,3.76-4.3,5.54-1.18,1.61-2.37,3.25-3.49,4.83-.4,.56-.79,1.11-1.17,1.66-3.06,4.49-5.07,7.61-7.13,11.1-1.93,3.28-3.9,6.89-6.84,12.33-.47,.86-.95,1.77-1.47,2.73-1.29,2.63-2.31,4.72-3.19,6.6-1.02,2.21-2.01,4.51-3,6.88-.24,.6-.49,1.22-.74,1.88-1.42,3.67-3.12,8.37-5.85,15.97-2.6,11.95,10.71,14.19,39.56,6.68,35.17-9.25,60.47-21.16,63.18-53.06,.74-8.7,.13-35.07-21.38-26.56Z"/>
      <path class="cls-5" d="M307.2,124.69c11.13-22.84,15.46-43.94,12.93-62.06-2.54-18.21-11.99-33.41-28.43-44.33C277.16,8.63,257.16,2.3,231.65,.2c-.24-.01-.49-.02-.73-.04,.15,0,.32,0,.47,.01-.17,0-.36,0-.53-.01,0,0-.01,0-.02,0-3.13-.09-6.69-.14-10.28-.15-3.79-.02-7.58,0-10.83,.07-.01,0-.02,0-.04,0-.26,.01-.5,.02-.75,.04-.48,.02-.94,.05-1.38,.07-1.36,.07-2.87,.16-4.4,.27-2.92,.22-5.64,.52-10.91,1.17-1.08,.12-2.13,.24-3.12,.35-.48,.07-.98,.14-1.52,.22-.05,0-.09,.02-.15,.03-.06,0-.12,.02-.19,.02-3.73,.56-5.49,.84-8.8,1.51-.12,.02-.23,.04-.35,.06-2.46,.51-5.53,1.12-7.88,1.66-.05,.01-.1,.02-.14,.03-.12,.03-.26,.06-.38,.09-.04,0-.07,.02-.11,.02-1.47,.34-2.54,.6-3.54,.84-.96,.25-2.01,.52-3.36,.89-.29,.08-.61,.17-.94,.26-.45,.12-.86,.23-1.24,.33-1.72,.48-4,1.15-6.42,1.9-.03,0-.05,.02-.07,.02-1.74,.54-3.49,1.11-5.1,1.65-.51,.18-1.07,.38-1.71,.61-.21,.07-.41,.14-.6,.2-2.48,.89-4.57,1.66-6.3,2.32-.03,.01-.06,.02-.09,.04-.08,.03-.15,.06-.22,.09-2.64,1.03-3.77,1.48-6.04,2.46-.19,.08-.37,.15-.55,.23-1.85,.82-4.16,1.81-5.92,2.63,0,0,0,0-.01,0,0,0-.01,0-.02,0-.37,.17-.77,.36-1.17,.55-.71,.33-1.4,.67-2.08,1-.27,.13-.54,.26-.81,.39-15.56,7.75-24,15.41-25.5,19.8-.65,1.9-.12,3.41,1.45,4.37,4.31,2.64,16.56,1.12,34.35-7.92-.54-1.93-.14-3.95,1.06-5.97,7.65-12.97,47.64-26.15,76.72-16.71,3.14,1.02,6.16,2.3,9,3.88,15.93,8.87,21.35,23.11,18.94,40.19-3.08,21.77-18.91,48.15-42.07,73.97-40.67,45.32-103.92,88.87-160.45,102.49C3.14,242.78,.94,233.46,0,229.48c.21,4.83,.55,9.42,.98,13.81,.07,.67,.14,1.34,.21,2.04,.01,.13,.03,.26,.04,.39,.11,.98,.22,1.98,.35,3,1.09,8.9,3.37,20.26,5.85,29.64,.74,2.69,1.52,5.29,2.33,7.82,.08,.24,.15,.48,.23,.72,1.17,3.6,2.38,7.04,3.63,10.35,2.54,6.73,5.19,12.94,7.74,18.93l1.47,3.03c5.18,7.05,16.3,5.99,28.07,4.86-.35-.95-.67-1.91-1.01-2.87,.34,.92,.67,1.87,1.01,2.87,58.9-9.78,128.44-61.54,171.71-98.28,4.74-4.02,9.28-8.05,13.68-12.06,33.67-30.76,57.34-61.18,70.9-89.02Z"/>
      <path class="cls-9" d="M307.2,126.28c11.13-22.84,15.46-43.94,12.93-62.06-2.54-18.21-11.99-33.41-28.43-44.33-14.55-9.67-34.54-16-60.05-18.1-.24-.01-.49-.02-.73-.04,.15,0,.32,0,.47,.01-.17,0-.36,0-.53-.01,0,0-.01,0-.02,0-3.13-.09-6.69-.14-10.28-.15-3.79-.02-7.58,0-10.83,.07-.01,0-.02,0-.04,0-.26,.01-.5,.02-.75,.04-.48,.02-.94,.05-1.38,.07-1.36,.07-2.87,.16-4.4,.27-2.92,.22-5.64,.52-10.91,1.17-1.08,.12-2.13,.24-3.12,.35-.48,.07-.98,.14-1.52,.22-.05,0-.09,.02-.15,.03-.06,0-.12,.02-.19,.02-3.73,.56-5.49,.84-8.8,1.51-.12,.02-.23,.04-.35,.06-2.46,.51-5.53,1.12-7.88,1.66-.05,.01-.1,.02-.14,.03-.12,.03-.26,.06-.38,.09-.04,0-.07,.02-.11,.02-1.47,.34-2.54,.6-3.54,.84-.96,.25-2.01,.52-3.36,.89-.29,.08-.61,.17-.94,.26-.45,.12-.86,.23-1.24,.33-1.72,.48-4,1.15-6.42,1.9-.03,0-.05,.02-.07,.02-1.74,.54-3.49,1.11-5.1,1.65-.51,.18-1.07,.38-1.71,.61-.21,.07-.41,.14-.6,.2-2.48,.89-4.57,1.66-6.3,2.32-.03,.01-.06,.02-.09,.04-.08,.03-.15,.06-.22,.09-2.64,1.03-3.77,1.48-6.04,2.46-.19,.08-.37,.15-.55,.23-1.85,.82-4.16,1.81-5.92,2.63,0,0,0,0-.01,0,0,0-.01,0-.02,0-.37,.17-.77,.36-1.17,.55-.71,.33-1.4,.67-2.08,1-.27,.13-.54,.26-.81,.39-15.56,7.75-24,15.41-25.5,19.8-.65,1.9-.12,3.41,1.45,4.37,4.31,2.64,16.56,1.12,34.35-7.92-.54-1.93-.14-3.95,1.06-5.97,7.65-12.97,47.64-26.15,76.72-16.71,3.14,1.02,6.16,2.3,9,3.88,15.93,8.87,21.35,23.11,18.94,40.19-3.08,21.77-18.91,48.15-42.07,73.97-40.67,45.32-103.92,88.87-160.45,102.49C3.14,244.37,.94,235.05,0,231.07c.21,4.83,.55,9.42,.98,13.81,.07,.67,.14,1.34,.21,2.04,.01,.13,.03,.26,.04,.39,.11,.98,.22,1.98,.35,3,1.09,8.9,3.37,20.26,5.85,29.64,.74,2.69,1.52,5.29,2.33,7.82,.08,.24,.15,.48,.23,.72,1.17,3.6,2.38,7.04,3.63,10.35,2.54,6.73,5.19,12.94,7.74,18.93l1.47,3.03c5.18,7.05,16.3,5.99,28.07,4.86-.35-.95-.67-1.91-1.01-2.87,.34,.92,.67,1.87,1.01,2.87,58.9-9.78,128.44-61.54,171.71-98.28,4.74-4.02,9.28-8.05,13.68-12.06,33.67-30.76,57.34-61.18,70.9-89.02Z"/>
    </g>
  </g>
</svg>